<svg width="32" height="36" viewBox="0 0 32 36" fill="none" xmlns="http://www.w3.org/2000/svg">
<path d="M26.6667 25.4586C25.3156 25.4586 24.1067 26.001 23.1822 26.8508L10.5067 19.3471C10.5956 18.9312 10.6667 18.5153 10.6667 18.0814C10.6667 17.6474 10.5956 17.2315 10.5067 16.8157L23.04 9.38423C24 10.2883 25.2622 10.8488 26.6667 10.8488C28.0812 10.8488 29.4377 10.2773 30.4379 9.26005C31.4381 8.24277 32 6.86305 32 5.42441C32 3.98577 31.4381 2.60605 30.4379 1.58877C29.4377 0.571499 28.0812 0 26.6667 0C25.2522 0 23.8956 0.571499 22.8954 1.58877C21.8952 2.60605 21.3333 3.98577 21.3333 5.42441C21.3333 5.85836 21.4044 6.27423 21.4933 6.6901L8.96 14.1215C8 13.2175 6.73778 12.657 5.33333 12.657C3.91885 12.657 2.56229 13.2285 1.5621 14.2457C0.561903 15.263 0 16.6427 0 18.0814C0 19.52 0.561903 20.8997 1.5621 21.917C2.56229 22.9343 3.91885 23.5058 5.33333 23.5058C6.73778 23.5058 8 22.9453 8.96 22.0412L21.6178 29.545C21.5289 29.9247 21.4756 30.3225 21.4756 30.7383C21.4756 33.6494 23.8044 36 26.6667 36C29.5289 36 31.8578 33.6494 31.8578 30.7383C31.8578 29.338 31.3109 27.9951 30.3373 27.005C29.3638 26.0148 28.0434 25.4586 26.6667 25.4586Z" fill="#1E1E1E"/>
</svg>
