<svg width="463" height="61" viewBox="0 0 463 61" fill="none" xmlns="http://www.w3.org/2000/svg">
<path d="M415.463 41.4221C415.463 34.3616 418.131 28.433 423.467 23.6362C428.856 18.8932 435.108 16.5218 442.223 16.5218C448.313 16.5218 453.271 18.2465 457.098 21.6959C461.033 25.0914 463 29.5918 463 35.197C463 42.3114 460.305 48.2401 454.915 52.983C449.633 57.7259 443.408 60.0973 436.24 60.0973C430.258 60.0973 425.272 58.3996 421.284 55.0041C417.403 51.5008 415.463 46.9735 415.463 41.4221ZM429.611 40.7753C429.611 43.1468 430.311 45.0332 431.713 46.4345C433.114 47.7819 434.974 48.4556 437.291 48.4556C440.309 48.4556 442.977 47.2969 445.295 44.9793C447.666 42.6078 448.852 39.6435 448.852 36.0863C448.852 33.661 448.151 31.7476 446.75 30.3463C445.349 28.8911 443.516 28.1635 441.252 28.1635C438.342 28.1635 435.674 29.3762 433.249 31.8015C430.823 34.173 429.611 37.1643 429.611 40.7753Z" fill="#194039"/>
<path d="M362.744 38.3501C362.744 31.7747 364.496 26.4928 367.999 22.5044C371.556 18.5161 376.218 16.5219 381.985 16.5219C384.734 16.5219 386.971 16.9261 388.695 17.7346C390.474 18.543 391.687 19.3515 392.333 20.1599L392.657 20.645H392.819C392.765 20.1599 392.738 19.2706 392.738 17.9771V11.4286H387.079V1.323H406.724V47.2431C406.724 48.4288 407.317 49.0217 408.503 49.0217H411.575V59.1273H399.529C397.696 59.1273 396.295 58.7231 395.325 57.9146C394.409 57.0523 393.95 56.0013 393.95 54.7617V54.5191L394.112 53.2256H393.95C393.896 53.2795 393.816 53.4142 393.708 53.6298C393.654 53.7915 393.492 54.061 393.223 54.4383C392.953 54.7617 392.603 55.1659 392.172 55.651C389.423 58.6153 385.731 60.0974 381.096 60.0974C375.599 60.0974 371.152 58.1033 367.757 54.1149C364.415 50.0187 362.744 44.7638 362.744 38.3501ZM376.811 38.3501C376.811 41.3683 377.566 43.8206 379.075 45.707C380.584 47.5934 382.524 48.5366 384.896 48.5366C387.267 48.5366 389.234 47.6742 390.797 45.9495C392.36 44.1709 393.142 41.7456 393.142 38.6735C393.142 35.6553 392.414 33.176 390.959 31.2357C389.558 29.2954 387.618 28.3253 385.138 28.3253C382.713 28.3253 380.719 29.2415 379.156 31.074C377.593 32.8526 376.811 35.278 376.811 38.3501Z" fill="#194039"/>
<path d="M315.287 47.243C315.287 44.4403 316.068 42.0419 317.631 40.0477C319.248 37.9997 321.404 36.5444 324.099 35.6821C328.572 34.0652 333.046 33.2567 337.519 33.2567H340.025V32.0441C340.025 28.9719 338.058 27.4359 334.124 27.4359C330.836 27.4359 327.548 28.406 324.26 30.3463L322.644 31.3973L317.793 21.9384C318.332 21.5072 319.383 20.8874 320.946 20.079C325.258 17.7075 330.081 16.5218 335.417 16.5218C341.453 16.5218 346.062 17.977 349.242 20.8874C352.422 23.7979 354.011 28.0018 354.011 33.4993V47.243C354.011 48.4287 354.604 49.0216 355.79 49.0216H358.862V59.1272H346.816C344.984 59.1272 343.582 58.723 342.612 57.9145C341.696 57.0522 341.238 56.0012 341.238 54.7616V54.519L341.4 53.2255H341.238C341.184 53.2794 341.103 53.4141 340.995 53.6297C340.888 53.7914 340.699 54.0609 340.429 54.4382C340.214 54.7616 339.89 55.1658 339.459 55.6509C336.711 58.6152 333.207 60.0973 328.949 60.0973C325.177 60.0973 321.943 58.9655 319.248 56.7018C316.607 54.4382 315.287 51.2852 315.287 47.243ZM329.354 46.2728C329.354 47.3508 329.677 48.2401 330.324 48.9407C331.024 49.6414 331.941 49.9917 333.073 49.9917C334.743 49.9917 336.36 49.1293 337.923 47.4047C339.432 45.7339 340.187 43.9553 340.187 42.0689V41.0987H338.893C336.145 41.0987 333.854 41.5569 332.022 42.4731C330.243 43.3354 329.354 44.602 329.354 46.2728Z" fill="#194039"/>
<path d="M303.438 59.1272H278.133V49.0215H283.792V29.3761C283.792 28.1904 283.2 27.5975 282.014 27.5975H278.133V17.4919H291.311C295.246 17.4919 297.213 19.2705 297.213 22.8277V25.0105L297.051 27.1125H297.213C298.183 24.1481 299.881 21.6958 302.306 19.7556C304.785 17.7614 307.507 16.7643 310.471 16.7643L312.088 16.926V30.6697C311.388 30.508 310.444 30.4271 309.259 30.4271C305.54 30.4271 302.683 31.532 300.689 33.7418C298.749 35.8976 297.779 38.9698 297.779 42.9581V49.0215H303.438V59.1272Z" fill="#194039"/>
<path d="M231.607 38.2691C231.607 32.0171 233.575 26.843 237.509 22.7469C241.497 18.5968 246.752 16.5218 253.274 16.5218C259.364 16.5218 264.107 18.4082 267.503 22.181C270.952 25.8459 272.677 30.6697 272.677 36.6522L272.353 40.8562H245.917C246.402 43.3354 247.507 45.2488 249.232 46.5962C251.01 47.8897 253.139 48.5365 255.618 48.5365C259.068 48.5365 262.463 47.5394 265.805 45.5452L267.341 44.5751L272.434 54.2765C271.787 54.8155 271.06 55.3544 270.251 55.8934C269.173 56.5941 267.125 57.4564 264.107 58.4804C260.981 59.5584 257.774 60.0973 254.487 60.0973C247.48 60.0973 241.902 57.9415 237.752 53.6297C233.655 49.3719 231.607 44.2517 231.607 38.2691ZM246.24 33.1759H258.205C258.205 31.5051 257.693 30.0768 256.669 28.8911C255.645 27.6515 254.406 27.0317 252.951 27.0317C249.339 27.0317 247.103 29.0797 246.24 33.1759Z" fill="#194039"/>
<path d="M178.163 38.3501C178.163 31.7747 179.915 26.4928 183.418 22.5044C186.975 18.5161 191.637 16.5219 197.404 16.5219C200.153 16.5219 202.39 16.9261 204.114 17.7346C205.893 18.543 207.106 19.3515 207.752 20.1599L208.076 20.645H208.238C208.184 20.1599 208.157 19.2706 208.157 17.9771V11.4286H202.497V1.323H222.143V47.2431C222.143 48.4288 222.736 49.0217 223.921 49.0217H226.994V59.1273H214.948C213.115 59.1273 211.714 58.7231 210.744 57.9146C209.827 57.0523 209.369 56.0013 209.369 54.7617V54.5191L209.531 53.2256H209.369C209.315 53.2795 209.235 53.4142 209.127 53.6298C209.073 53.7915 208.911 54.061 208.642 54.4383C208.372 54.7617 208.022 55.1659 207.591 55.651C204.842 58.6153 201.15 60.0974 196.515 60.0974C191.017 60.0974 186.571 58.1033 183.175 54.1149C179.834 50.0187 178.163 44.7638 178.163 38.3501ZM192.23 38.3501C192.23 41.3683 192.985 43.8206 194.494 45.707C196.003 47.5934 197.943 48.5366 200.315 48.5366C202.686 48.5366 204.653 47.6742 206.216 45.9495C207.779 44.1709 208.561 41.7456 208.561 38.6735C208.561 35.6553 207.833 33.176 206.378 31.2357C204.977 29.2954 203.036 28.3253 200.557 28.3253C198.132 28.3253 196.138 29.2415 194.575 31.074C193.012 32.8526 192.23 35.278 192.23 38.3501Z" fill="#194039"/>
<path d="M129.719 38.0657C129.719 31.8136 131.686 26.6395 135.62 22.5434C139.609 18.3933 144.864 16.3183 151.385 16.3183C157.476 16.3183 162.219 18.2047 165.614 21.9775C169.063 25.6424 170.788 30.4662 170.788 36.4487L170.465 40.6527H144.028C144.513 43.132 145.618 45.0453 147.343 46.3927C149.122 47.6862 151.251 48.333 153.73 48.333C157.179 48.333 160.575 47.3359 163.916 45.3417L165.452 44.3716L170.546 54.073C169.899 54.612 169.171 55.1509 168.363 55.6899C167.285 56.3906 165.237 57.2529 162.219 58.277C159.092 59.3549 155.886 59.8939 152.598 59.8939C145.591 59.8939 140.013 57.738 135.863 53.4262C131.767 49.1684 129.719 44.0482 129.719 38.0657ZM144.352 32.9724H156.317C156.317 31.3016 155.805 29.8733 154.781 28.6876C153.757 27.448 152.517 26.8282 151.062 26.8282C147.451 26.8282 145.214 28.8763 144.352 32.9724Z" fill="#194039"/>
<path d="M115.071 59.1273H86.8564V48.6174H93.3241V11.8329H86.8564V1.323H129.947V18.3813H117.82V13.4498H107.795V25.9808H124.773V37.2991H107.795V48.6174H115.071V59.1273Z" fill="#194039"/>
<path d="M0 34.3077C0 28.3791 1.58996 22.7738 4.76987 17.4919C7.94978 12.21 12.2076 8.03302 17.5434 4.9609C22.8792 1.88878 28.5922 0.352722 34.6826 0.352722C42.4976 0.352722 48.8574 2.72418 53.762 7.4671C58.6667 12.21 61.119 18.2465 61.119 25.5764C61.2807 31.5051 59.6907 37.1912 56.3491 42.6348C53.0614 48.0244 48.6958 52.3362 43.2522 55.57C37.8086 58.7499 32.1764 60.259 26.3555 60.0973C18.5944 60.0973 12.2346 57.6989 7.27607 52.9021C2.42536 48.0514 0 41.8533 0 34.3077ZM14.5521 33.4993C14.5521 37.7032 15.7109 41.0987 18.0285 43.6857C20.3999 46.2728 23.472 47.5663 27.2448 47.5663C32.0955 47.5663 36.5151 45.4913 40.5034 41.3412C44.4918 37.1912 46.486 32.2327 46.486 26.4657C46.486 22.4235 45.3003 19.1627 42.9288 16.6835C40.5573 14.1503 37.4852 12.8837 33.7124 12.8837C28.7539 12.8837 24.3075 14.9049 20.373 18.9471C16.4924 22.9894 14.5521 27.8401 14.5521 33.4993Z" fill="#194039"/>
</svg>
