<svg width="75" height="75" viewBox="0 0 75 75" fill="none" xmlns="http://www.w3.org/2000/svg">
<path d="M28.5585 0C36.1326 0 43.3966 3.01246 48.7523 8.37467C54.1081 13.7369 57.1169 21.0096 57.1169 28.5929C57.1169 35.4141 56.3457 39.5761 52.4811 44.3541C52.2263 44.6692 52.2403 45.1274 52.5233 45.4174L73.6759 67.0911C75.456 68.915 75.4391 71.8333 73.6381 73.6365C71.8019 75.4749 68.8176 75.4512 67.0107 73.5839L46.1477 52.023C45.8692 51.7351 45.4156 51.7146 45.1044 51.9667C40.2755 55.879 35.3742 57.1858 28.5585 57.1858C20.9843 57.1858 13.7203 54.1733 8.36458 48.8111C3.00883 43.4489 0 36.1762 0 28.5929C0 21.0096 3.00883 13.7369 8.36458 8.37467C13.7203 3.01246 20.9843 0 28.5585 0ZM28.5585 8.79782C17.5744 8.79782 8.78722 17.5956 8.78722 28.5929C8.78722 39.5902 17.5744 48.388 28.5585 48.388C39.5425 48.388 48.3297 39.5902 48.3297 28.5929C48.3297 17.5956 39.5425 8.79782 28.5585 8.79782Z" fill="#1E1E1E"/>
</svg>
